<mxfile host="app.diagrams.net" modified="2021-09-17T07:49:33.976Z" agent="5.0 (Windows NT 10.0; Win64; x64) AppleWebKit/537.36 (KHTML, like Gecko) Chrome/88.0.4324.93 Safari/537.36" etag="PvJgz-xICUiocqpVbNvd" version="15.2.9" type="github">
  <diagram id="2VCRJcoWypSmIJ_e8AfO" name="Page-1">
    <mxGraphModel dx="1422" dy="735" grid="1" gridSize="10" guides="1" tooltips="1" connect="1" arrows="1" fold="1" page="1" pageScale="1" pageWidth="827" pageHeight="1169" math="0" shadow="0">
      <root>
        <mxCell id="0" />
        <mxCell id="1" parent="0" />
        <mxCell id="npCvvnGHQV8Djx3kJxQI-1" value="&lt;pre&gt;&lt;font face=&quot;Times New Roman&quot;&gt;这是一个文本框&lt;/font&gt;&lt;/pre&gt;" style="rounded=0;whiteSpace=wrap;html=1;" parent="1" vertex="1">
          <mxGeometry x="140" y="220" width="200" height="140" as="geometry" />
        </mxCell>
        <mxCell id="8zJlCh0X7UyIBIwxyKp6-1" value="&lt;pre&gt;&lt;font face=&quot;Times New Roman&quot;&gt;这是一个文本框&lt;/font&gt;&lt;/pre&gt;" style="rounded=0;whiteSpace=wrap;html=1;" vertex="1" parent="1">
          <mxGeometry x="390" y="220" width="200" height="140" as="geometry" />
        </mxCell>
      </root>
    </mxGraphModel>
  </diagram>
</mxfile>
